 http://www.imdb.com/title/tt0102926/

Source: The.Silence.Of.The.Lambs.1991.Blu-ray.720p.x264.DTS.DD51.MultiAudio-MySiLU Thanks!

Subs: Arabic, Bosnian, Croatian, Czech, Danish, Dutch, English, French, German, Greek, Indonesian, Norwegian, Romanian, Spanish, Swedish and Vietnamese.

Sample and Screens included.

General
Complete name                            : The Silence Of The Lambs-720p MP4 AAC x264 BRRip 1991-CC.mp4
Format                                   : MPEG-4
Format profile                           : Base Media
Codec ID                                 : isom
File size                                : 3.45 GiB
Duration                                 : 1h 58mn
Overall bit rate mode                    : Variable
Overall bit rate                         : 4 166 Kbps
Encoded date                             : UTC 2012-10-28 18:59:06

Video
ID                                       : 1
Format                                   : AVC
Format/Info                              : Advanced Video Codec
Format profile                           : High@L4.1
Format settings, CABAC                   : Yes
Format settings, ReFrames                : 5 frames
Codec ID                                 : avc1
Codec ID/Info                            : Advanced Video Coding
Duration                                 : 1h 58mn
Bit rate                                 : 3 727 Kbps
Maximum bit rate                         : 17.6 Mbps
Width                                    : 1 280 pixels
Height                                   : 688 pixels
Display aspect ratio                     : 1.85:1
Frame rate mode                          : Variable
Frame rate                               : 23.976 fps
Minimum frame rate                       : 19.048 fps
Maximum frame rate                       : 24.390 fps
Color space                              : YUV
Chroma subsampling                       : 4:2:0
Bit depth                                : 8 bits
Scan type                                : Progressive
Bits/(Pixel*Frame)                       : 0.177
Stream size                              : 3.13 GiB (91%)
Writing library                          : x264 core 112

Audio
ID                                       : 2
Format                                   : AAC
Format/Info                              : Advanced Audio Codec
Format profile                           : LC
Codec ID                                 : 40
Duration                                 : 1h 58mn
Bit rate mode                            : Variable
Bit rate                                 : 384 Kbps
Maximum bit rate                         : 551 Kbps
Channel(s)                               : 6 channels
Channel positions                        : Front: L C R, Side: L R, LFE
Sampling rate                            : 48.0 KHz
Compression mode                         : Lossy
Delay relative to video                  : 83ms
Stream size                              : 326 MiB (9%)
Language                                 : English

Enjoy...

Requested by Alorati.

Coming soon: The Horse Whisperer, Monster Ball, Le Scaphandre Et Le Papillon, The International and more.